<svg version="1.1" id="Layer_1" xmlns="http://www.w3.org/2000/svg" xmlns:xlink="http://www.w3.org/1999/xlink" x="0px" y="0px"
	 width="100%" viewBox="0 0 192 192" enable-background="new 0 0 192 192" xml:space="preserve">
<path fill="#FEFEFE" opacity="1.000000" stroke="none" 
	d="
M1.000002,151.000000 
	C1.000000,115.312439 1.000000,79.624878 1.352319,43.453590 
	C2.355520,42.501842 3.252479,42.177303 3.621289,41.544804 
	C12.796424,25.809626 25.415688,13.522955 40.850986,3.987347 
	C41.814697,3.391985 42.294865,2.013916 43.000000,0.999999 
	C78.687561,1.000000 114.375122,1.000000 150.574860,1.344076 
	C151.517059,2.158103 151.863724,2.771458 152.389343,3.077036 
	C165.679581,10.803588 176.957581,20.724337 185.939468,33.267948 
	C187.957153,36.085758 190.629196,38.435032 193.000000,40.999996 
	C193.000000,78.020897 193.000000,115.041786 192.655670,152.568390 
	C191.751556,153.641998 191.066803,154.130936 190.650528,154.789566 
	C183.275620,166.457932 174.487656,176.779434 163.027176,184.709641 
	C159.473907,187.168350 156.330856,190.219879 153.000000,193.000000 
	C115.979103,193.000000 78.958214,193.000000 41.458157,192.646301 
	C40.298286,191.389664 39.807678,190.168045 38.908348,189.631592 
	C25.464962,181.612488 15.020842,170.557327 6.240083,157.764404 
	C4.628693,155.416733 2.753452,153.250153 1.000002,151.000000 
M82.563278,16.188293 
	C82.274315,16.368820 82.096573,16.626175 82.024933,17.025036 
	C82.024933,17.025036 81.960289,17.030659 81.501938,17.240870 
	C81.353134,17.533686 81.204338,17.826504 81.077545,18.583115 
	C81.077545,18.583115 80.980370,19.037148 80.951317,19.686789 
	C80.967133,20.120070 80.982948,20.553352 80.326149,20.997101 
	C79.877808,21.007084 79.429459,21.017067 78.149780,21.005299 
	C72.776817,20.249773 71.689117,23.902866 70.834106,28.433395 
	C70.659904,28.740295 70.402641,28.940422 69.356567,29.067446 
	C68.558220,30.304119 67.759872,31.540792 66.730240,33.065395 
	C66.730240,33.065395 66.382584,33.190041 65.640656,33.140820 
	C55.181614,43.539547 47.396641,55.792557 41.188343,69.054245 
	C38.466087,74.869316 35.867935,80.843651 34.171368,87.009262 
	C32.478218,93.162422 31.983150,99.645248 31.061167,106.789879 
	C30.988516,107.868011 30.915867,108.946152 30.336542,110.611534 
	C30.510080,113.398033 30.683617,116.184532 30.986328,119.647293 
	C30.963102,120.104584 30.939875,120.561867 30.391064,121.543198 
	C30.413418,122.665718 30.220329,123.844048 30.494190,124.901428 
	C31.932117,130.453308 33.851559,135.909042 34.866264,141.531265 
	C35.470299,144.878082 36.567680,147.090744 40.098927,148.286469 
	C40.098927,148.286469 40.158520,148.645599 40.204277,149.221649 
	C40.475101,149.477676 40.745926,149.733704 40.999763,149.999527 
	C40.999763,149.999527 41.014156,149.984833 40.982910,150.777695 
	C41.185581,153.421158 41.239685,156.182587 45.009949,156.005096 
	C45.009949,156.005096 45.066074,155.926849 45.013706,156.677597 
	C47.844776,162.380615 51.078960,167.655289 57.998329,168.996643 
	C57.998329,168.996643 58.043453,168.938446 58.111694,169.654709 
	C58.876114,170.038834 59.640537,170.422974 60.741642,170.887344 
	C60.741642,170.887344 60.974560,171.143356 61.059536,171.833298 
	C64.459854,176.250305 70.528984,178.488632 75.336433,177.507233 
	C75.682877,177.712234 76.029312,177.917236 76.808182,178.639404 
	C94.348480,184.197403 111.203506,182.578049 127.522682,174.085358 
	C152.122971,161.283035 167.630005,129.945114 161.722229,102.975967 
	C159.429016,92.507355 155.231384,82.455917 151.850952,71.729813 
	C151.737213,71.405945 151.525101,71.170853 150.974472,70.616158 
	C150.974472,70.616158 150.915924,70.146019 150.979706,69.344131 
	C150.510147,65.835022 150.302734,62.164124 145.944168,60.994186 
	C145.944168,60.994186 145.919983,61.104080 145.839508,60.646637 
	C145.707611,60.347046 145.488571,60.139420 144.929230,59.668465 
	C144.929230,59.668465 144.869370,59.236328 144.951080,58.447758 
	C144.016876,55.764759 143.993225,52.391232 139.572403,51.703922 
	C139.335510,51.210510 139.098602,50.717098 138.949890,49.458054 
	C137.931732,48.335239 136.913559,47.212425 135.940216,45.992107 
	C135.940216,45.992107 135.923737,46.097687 135.812195,45.619270 
	C135.654388,45.314220 135.415451,45.099464 135.019745,44.967808 
	C135.019745,44.967808 135.048401,44.897476 135.035141,44.143833 
	C134.059525,43.080235 133.083908,42.016640 132.023315,40.955616 
	C132.023315,40.955616 132.035339,40.871464 131.872711,40.498943 
	C131.724579,40.262592 131.524521,40.084560 130.772583,39.641384 
	C130.492935,39.130112 130.213287,38.618843 129.974564,37.338928 
	C129.537628,34.412746 128.799759,31.769978 125.000572,32.003632 
	C125.000572,32.003632 124.971626,32.023983 124.819580,31.566835 
	C124.643509,31.278086 124.392723,31.087795 123.564583,30.704538 
	C123.031883,29.902191 122.499184,29.099846 121.769012,27.708677 
	C121.420876,27.513853 121.072746,27.319031 120.225563,26.868050 
	C119.800827,26.268858 119.376083,25.669668 118.988449,24.276892 
	C119.388702,21.242659 117.489716,20.839174 115.055519,20.937904 
	C115.055519,20.937904 115.073074,20.835773 115.031021,20.125483 
	C112.879112,18.156155 110.727211,16.186829 107.988281,13.989506 
	C106.664574,12.926339 105.340866,11.863172 104.014191,9.991617 
	C103.828522,8.378990 103.642845,6.766363 103.459137,5.170867 
	C100.537094,6.638717 98.279335,7.772868 95.346619,9.033156 
	C94.890663,9.008969 94.434715,8.984782 93.581619,8.462368 
	C92.720505,8.961747 91.859398,9.461126 90.753845,10.183354 
	C90.753845,10.183354 90.423080,10.182858 89.830559,10.216053 
	C89.557030,10.483653 89.283501,10.751252 89.000977,10.998610 
	C89.000977,10.998610 89.019600,11.012612 88.614143,11.108974 
	C88.347641,11.225331 88.155525,11.416443 87.613388,12.148380 
	C86.795120,12.792596 85.976852,13.436811 84.642761,14.211026 
	C84.442604,14.491809 84.242455,14.772591 84.001427,14.999547 
	C84.001427,14.999547 84.053070,15.043481 83.578262,15.206485 
	C83.395905,15.477309 83.213547,15.748133 83.003593,16.002846 
	C83.003593,16.002846 83.017937,16.031231 82.563278,16.188293 
z"/>
<path fill="#DFDFDF" opacity="1.000000" stroke="none" 
	d="
M1.000002,151.449982 
	C2.753452,153.250153 4.628693,155.416733 6.240083,157.764404 
	C15.020842,170.557327 25.464962,181.612488 38.908348,189.631592 
	C39.807678,190.168045 40.298286,191.389664 40.989498,192.646301 
	C38.958332,193.000000 36.916668,193.000000 34.402008,192.642944 
	C31.167303,189.904037 28.194010,187.724701 25.683735,185.102188 
	C18.301960,177.390289 11.122869,169.484680 3.804459,161.711380 
	C3.080490,160.942413 1.944665,160.561188 0.999997,160.000000 
	C1.000000,157.299988 1.000000,154.599976 1.000002,151.449982 
z"/>
<path fill="#DEDEDE" opacity="1.000000" stroke="none" 
	d="
M193.000000,40.562496 
	C190.629196,38.435032 187.957153,36.085758 185.939468,33.267948 
	C176.957581,20.724337 165.679581,10.803588 152.389343,3.077036 
	C151.863724,2.771458 151.517059,2.158103 151.043518,1.344076 
	C153.041672,1.000000 155.083328,1.000000 157.610413,1.333356 
	C159.397812,2.443811 160.699829,3.220910 162.335098,4.047986 
	C164.111221,5.066161 165.554077,6.034358 167.048187,7.340508 
	C174.255112,15.471564 181.369217,23.303696 188.608185,31.018656 
	C189.789490,32.277634 191.522171,33.019257 193.000000,34.000000 
	C193.000000,36.041668 193.000000,38.083332 193.000000,40.562496 
z"/>
<path fill="#DEDEDE" opacity="1.000000" stroke="none" 
	d="
M42.583332,0.999999 
	C42.294865,2.013916 41.814697,3.391985 40.850986,3.987347 
	C25.415688,13.522955 12.796424,25.809626 3.621289,41.544804 
	C3.252479,42.177303 2.355520,42.501842 1.352319,42.984932 
	C1.000000,41.611111 1.000000,40.222221 1.343557,38.362747 
	C4.123568,33.926926 6.560022,29.961683 8.998239,25.998222 
	C9.000000,26.000000 8.996430,25.996477 9.366701,25.993044 
	C13.173286,22.926588 16.757530,20.010078 19.990644,16.745796 
	C21.941904,14.775729 23.347677,12.265385 25.217573,9.889751 
	C25.709877,9.582881 25.898088,9.322550 26.354656,8.963727 
	C30.472061,6.284501 34.236031,3.642251 38.000000,1.000000 
	C39.388889,1.000000 40.777779,1.000000 42.583332,0.999999 
z"/>
<path fill="#FDFDFD" opacity="1.000000" stroke="none" 
	d="
M1.000000,18.000000 
	C1.000000,12.407914 1.000000,6.815828 1.000000,1.000000 
	C6.350975,1.000000 11.705034,1.000000 17.523705,1.361137 
	C12.986943,7.096724 8.004343,12.489043 2.942287,17.805712 
	C2.602103,18.163006 1.661401,17.948540 1.000000,18.000000 
z"/>
<path fill="#F6F6F6" opacity="1.000000" stroke="none" 
	d="
M1.000000,18.444164 
	C1.661401,17.948540 2.602103,18.163006 2.942287,17.805712 
	C8.004343,12.489043 12.986943,7.096724 17.994156,1.361137 
	C20.370558,1.000000 22.741116,1.000000 25.522186,1.345055 
	C25.051180,2.863962 24.289961,4.156497 23.268301,5.192095 
	C17.354895,11.186172 11.420907,17.161541 5.392481,23.039238 
	C4.148566,24.252052 2.475349,25.024555 1.000000,26.000000 
	C1.000000,23.629442 1.000000,21.258884 1.000000,18.444164 
z"/>
<path fill="#ECECEC" opacity="1.000000" stroke="none" 
	d="
M1.000000,26.437500 
	C2.475349,25.024555 4.148566,24.252052 5.392481,23.039238 
	C11.420907,17.161541 17.354895,11.186172 23.268301,5.192095 
	C24.289961,4.156497 25.051180,2.863962 25.966351,1.345055 
	C28.041666,1.000000 30.083334,1.000000 32.512978,1.339650 
	C30.601044,4.119767 28.301132,6.560234 26.001221,9.000702 
	C25.898088,9.322550 25.709877,9.582881 24.868443,9.924921 
	C17.865129,14.096008 11.986090,18.658190 8.996430,25.996477 
	C8.996430,25.996477 9.000000,26.000000 8.650009,26.034863 
	C5.866679,28.379818 3.433339,30.689909 1.000000,33.000000 
	C1.000000,30.958334 1.000000,28.916666 1.000000,26.437500 
z"/>
<path fill="#FDFDFD" opacity="1.000000" stroke="none" 
	d="
M18.000000,193.000000 
	C12.410469,193.000000 6.820939,193.000000 1.000000,193.000000 
	C1.000000,187.983139 1.000000,182.962769 1.369273,177.475464 
	C2.640584,177.337494 3.776858,177.424469 4.406904,178.034378 
	C8.717534,182.207336 12.946648,186.466019 17.128828,190.768219 
	C17.641718,191.295868 17.720200,192.245773 18.000000,193.000000 
z"/>
<path fill="#FDFDFD" opacity="1.000000" stroke="none" 
	d="
M177.000000,1.000000 
	C182.258423,1.000000 187.516861,1.000000 193.000000,1.000000 
	C193.000000,6.017719 193.000000,11.037662 192.653473,16.493969 
	C187.272354,12.276545 182.219025,7.642555 177.241943,2.928040 
	C176.878586,2.583838 177.067734,1.656321 177.000000,1.000000 
z"/>
<path fill="#E6E6E6" opacity="1.000000" stroke="none" 
	d="
M0.999997,160.399994 
	C1.944665,160.561188 3.080490,160.942413 3.804459,161.711380 
	C11.122869,169.484680 18.301960,177.390289 25.683735,185.102188 
	C28.194010,187.724701 31.167303,189.904037 33.964508,192.642944 
	C32.285641,193.000000 30.571283,193.000000 28.394581,192.644348 
	C27.243382,191.192764 26.710651,189.950134 25.840784,189.024261 
	C19.310698,182.073685 12.748021,175.152725 6.113078,168.302368 
	C4.571419,166.710648 2.712785,165.425964 0.999999,164.000000 
	C1.000000,162.933334 1.000000,161.866653 0.999997,160.399994 
z"/>
<path fill="#F7F7F7" opacity="1.000000" stroke="none" 
	d="
M18.428463,193.000000 
	C17.720200,192.245773 17.641718,191.295868 17.128828,190.768219 
	C12.946648,186.466019 8.717534,182.207336 4.406904,178.034378 
	C3.776858,177.424469 2.640584,177.337494 1.369273,177.004272 
	C1.000000,174.958328 1.000000,172.916672 1.345881,170.471527 
	C2.854116,170.939499 4.131702,171.693558 5.159203,172.702332 
	C10.049380,177.503418 14.935833,182.312012 19.682787,187.253220 
	C21.330517,188.968353 22.572630,191.073166 24.000000,193.000000 
	C22.285643,193.000000 20.571283,193.000000 18.428463,193.000000 
z"/>
<path fill="#E1E1E1" opacity="1.000000" stroke="none" 
	d="
M193.000000,158.000000 
	C193.000000,159.389328 193.000000,160.778641 192.654037,162.619400 
	C188.432968,167.256439 184.721786,171.609985 180.645172,175.589157 
	C174.194977,181.885162 168.509369,189.132111 160.000000,193.000000 
	C159.250000,193.000000 158.500000,193.000000 157.430725,192.653290 
	C159.008194,190.846603 160.992035,189.485703 162.785767,187.908569 
	C168.783813,182.634857 174.908554,177.482452 180.607376,171.898453 
	C185.030777,167.564178 188.889999,162.654114 193.000000,158.000000 
z"/>
<path fill="#DDDDDD" opacity="1.000000" stroke="none" 
	d="
M193.000000,157.583344 
	C188.889999,162.654114 185.030777,167.564178 180.607376,171.898453 
	C174.908554,177.482452 168.783813,182.634857 162.785767,187.908569 
	C160.992035,189.485703 159.008194,190.846603 157.055725,192.653290 
	C155.933334,193.000000 154.866653,193.000000 153.399994,193.000000 
	C156.330856,190.219879 159.473907,187.168350 163.027176,184.709641 
	C174.487656,176.779434 183.275620,166.457932 190.650528,154.789566 
	C191.066803,154.130936 191.751556,153.641998 192.655670,153.037048 
	C193.000000,154.388885 193.000000,155.777786 193.000000,157.583344 
z"/>
<path fill="#EAEAEA" opacity="1.000000" stroke="none" 
	d="
M160.449982,193.000000 
	C168.509369,189.132111 174.194977,181.885162 180.645172,175.589157 
	C184.721786,171.609985 188.432968,167.256439 192.654037,163.035416 
	C193.000000,164.714355 193.000000,166.428711 192.631973,168.574570 
	C191.111801,169.571350 189.719193,169.890091 188.846207,170.741577 
	C182.799576,176.639175 176.800232,182.589096 170.945038,188.675507 
	C169.913193,189.748077 169.629303,191.540176 169.000000,193.000000 
	C166.299988,193.000000 163.599976,193.000000 160.449982,193.000000 
z"/>
<path fill="#F0F0F0" opacity="1.000000" stroke="none" 
	d="
M193.000000,24.000000 
	C193.000000,25.714396 193.000000,27.428793 192.659851,29.521643 
	C190.422974,27.743414 188.626846,25.487148 186.609848,23.449533 
	C181.459824,18.246841 176.211288,13.141658 170.966904,7.652259 
	C169.287766,5.204700 167.643890,3.102347 166.000000,0.999997 
	C167.066666,1.000000 168.133347,1.000000 169.635376,1.346753 
	C170.483765,2.385816 170.768082,3.212737 171.329681,3.749662 
	C177.102356,9.268839 182.911682,14.749847 188.731018,20.219961 
	C190.115295,21.521168 191.574997,22.742126 193.000000,24.000000 
z"/>
<path fill="#F7F7F7" opacity="1.000000" stroke="none" 
	d="
M193.000000,23.562500 
	C191.574997,22.742126 190.115295,21.521168 188.731018,20.219961 
	C182.911682,14.749847 177.102356,9.268839 171.329681,3.749662 
	C170.768082,3.212737 170.483765,2.385816 170.035370,1.346753 
	C172.041672,1.000000 174.083328,1.000000 176.562500,1.000000 
	C177.067734,1.656321 176.878586,2.583838 177.241943,2.928040 
	C182.219025,7.642555 187.272354,12.276545 192.653473,16.965168 
	C193.000000,19.041666 193.000000,21.083334 193.000000,23.562500 
z"/>
<path fill="#FDFDFD" opacity="1.000000" stroke="none" 
	d="
M193.000000,179.000000 
	C193.000000,183.590591 193.000000,188.181198 193.000000,193.000000 
	C188.651093,193.000000 184.299683,193.000000 179.478210,192.632767 
	C182.298599,186.394974 186.854797,181.859497 193.000000,179.000000 
z"/>
<path fill="#EFEFEF" opacity="1.000000" stroke="none" 
	d="
M24.399996,193.000000 
	C22.572630,191.073166 21.330517,188.968353 19.682787,187.253220 
	C14.935833,182.312012 10.049380,177.503418 5.159203,172.702332 
	C4.131702,171.693558 2.854116,170.939499 1.345881,170.034027 
	C1.000000,168.285645 1.000000,166.571289 0.999999,164.428467 
	C2.712785,165.425964 4.571419,166.710648 6.113078,168.302368 
	C12.748021,175.152725 19.310698,182.073685 25.840784,189.024261 
	C26.710651,189.950134 27.243382,191.192764 27.966118,192.644348 
	C26.933331,193.000000 25.866661,193.000000 24.399996,193.000000 
z"/>
<path fill="#F7F7F7" opacity="1.000000" stroke="none" 
	d="
M193.000000,178.562500 
	C186.854797,181.859497 182.298599,186.394974 179.004089,192.632767 
	C176.958328,193.000000 174.916672,193.000000 172.471954,192.654175 
	C172.947235,191.139038 173.708511,189.854919 174.723846,188.820084 
	C179.423965,184.029648 184.149475,179.261749 188.973618,174.597198 
	C190.099869,173.508209 191.646683,172.854156 193.000000,172.000000 
	C193.000000,174.041672 193.000000,176.083328 193.000000,178.562500 
z"/>
<path fill="#E5E5E5" opacity="1.000000" stroke="none" 
	d="
M171.002167,7.997467 
	C176.211288,13.141658 181.459824,18.246841 186.609848,23.449533 
	C188.626846,25.487148 190.422974,27.743414 192.659851,29.950048 
	C193.000000,31.066669 193.000000,32.133339 193.000000,33.600006 
	C191.522171,33.019257 189.789490,32.277634 188.608185,31.018656 
	C181.369217,23.303696 174.255112,15.471564 167.394058,7.371458 
	C168.793182,7.375459 169.897675,7.686464 171.002167,7.997467 
z"/>
<path fill="#F1F1F1" opacity="1.000000" stroke="none" 
	d="
M193.000000,171.625000 
	C191.646683,172.854156 190.099869,173.508209 188.973618,174.597198 
	C184.149475,179.261749 179.423965,184.029648 174.723846,188.820084 
	C173.708511,189.854919 172.947235,191.139038 172.034454,192.654175 
	C171.250000,193.000000 170.500000,193.000000 169.375000,193.000000 
	C169.629303,191.540176 169.913193,189.748077 170.945038,188.675507 
	C176.800232,182.589096 182.799576,176.639175 188.846207,170.741577 
	C189.719193,169.890091 191.111801,169.571350 192.631973,169.003036 
	C193.000000,169.750000 193.000000,170.500000 193.000000,171.625000 
z"/>
<path fill="#E3E3E3" opacity="1.000000" stroke="none" 
	d="
M1.000000,33.416664 
	C3.433339,30.689909 5.866679,28.379818 8.648248,26.033085 
	C6.560022,29.961683 4.123568,33.926926 1.343557,37.946083 
	C1.000000,36.611111 1.000000,35.222221 1.000000,33.416664 
z"/>
<path fill="#E3E3E3" opacity="1.000000" stroke="none" 
	d="
M26.354656,8.963726 
	C28.301132,6.560234 30.601044,4.119767 32.950478,1.339650 
	C34.388889,1.000000 35.777779,1.000000 37.583336,1.000000 
	C34.236031,3.642251 30.472061,6.284501 26.354656,8.963726 
z"/>
<path fill="#EBEBEB" opacity="1.000000" stroke="none" 
	d="
M170.966904,7.652262 
	C169.897675,7.686464 168.793182,7.375459 167.342819,7.033505 
	C165.554077,6.034358 164.111221,5.066161 162.334778,3.673273 
	C162.000793,2.499056 162.000397,1.749528 162.000000,1.000000 
	C163.066666,1.000000 164.133347,1.000000 165.600006,0.999997 
	C167.643890,3.102347 169.287766,5.204700 170.966904,7.652262 
z"/>
<path fill="#E5E5E5" opacity="1.000000" stroke="none" 
	d="
M161.600006,1.000000 
	C162.000397,1.749528 162.000793,2.499056 162.001511,3.623296 
	C160.699829,3.220910 159.397812,2.443811 158.047913,1.333356 
	C159.066666,1.000000 160.133347,1.000000 161.600006,1.000000 
z"/>
<path fill="#7CC146" opacity="1.000000" stroke="none" 
	d="
M66.382584,33.190041 
	C66.382584,33.190041 66.730240,33.065395 67.141876,32.819489 
	C68.389778,31.393648 69.226044,30.213713 70.062302,29.033777 
	C70.402641,28.940422 70.659904,28.740295 71.225616,28.069763 
	C74.054703,26.186970 76.492264,24.667807 79.000977,23.360086 
	C79.242516,23.835150 79.480095,24.004534 79.874832,24.359344 
	C80.267624,24.877890 80.570442,25.116774 80.907310,25.532846 
	C81.048058,25.948235 81.228630,26.096394 81.582764,26.449568 
	C82.098610,27.185200 82.514778,27.625771 82.966293,28.036045 
	C83.001633,28.005747 82.922134,28.053143 82.970551,28.317131 
	C83.291855,28.791695 83.564743,29.002272 83.815170,29.165297 
	C83.792709,29.117744 83.752495,29.214930 83.822472,29.518606 
	C84.580208,30.582630 85.267967,31.342979 86.048630,32.390305 
	C86.751892,33.454224 87.362259,34.231171 88.035072,35.276459 
	C88.367172,35.785934 88.636818,36.027061 88.963837,36.561028 
	C89.842674,37.963207 90.664131,39.072544 91.601135,40.479778 
	C92.105209,41.266781 92.493744,41.755886 92.955582,42.560997 
	C93.272331,43.229099 93.515762,43.581188 93.738312,44.185417 
	C94.092339,44.764751 94.467232,45.091949 94.886719,45.723701 
	C95.597725,47.026016 96.264137,48.023777 96.984489,49.313560 
	C97.294647,49.898335 97.550880,50.191090 97.809586,50.634418 
	C97.812065,50.784996 98.015976,51.006672 98.055878,51.265591 
	C98.352562,51.741901 98.609337,51.959293 98.863297,52.126762 
	C98.860466,52.076839 98.781937,52.138760 98.798294,52.370544 
	C98.814644,52.602325 99.065681,52.994411 99.107300,53.307327 
	C99.654991,54.275791 100.161064,54.931339 100.703735,55.866978 
	C101.109245,56.784256 101.478149,57.421448 101.906876,58.347763 
	C102.224998,58.928318 102.483307,59.219749 102.751808,59.799290 
	C103.111755,60.750160 103.461510,61.412922 103.871758,62.369568 
	C104.200653,62.952545 104.469055,63.241642 104.761368,63.869251 
	C105.320221,65.451950 105.855156,66.696144 106.347366,68.246864 
	C106.769104,69.208328 107.233559,69.863258 107.725647,70.828728 
	C108.142517,72.096077 108.531738,73.052895 108.940506,74.311028 
	C109.211739,74.917625 109.463432,75.222893 109.703918,75.783470 
	C109.808273,76.357437 109.923836,76.676102 110.044815,77.287491 
	C110.281128,77.886536 110.512009,78.192841 110.752167,78.883759 
	C111.128975,80.710815 111.469429,82.160782 111.868301,83.594505 
	C115.228920,95.674095 116.815506,107.863586 115.224129,120.445404 
	C113.769630,131.944992 108.699249,141.870667 102.603104,151.714142 
	C102.182106,152.227600 102.017769,152.582962 101.897827,152.940521 
	C101.942215,152.942703 101.921509,152.856247 101.669365,152.951538 
	C101.248688,153.354736 101.080154,153.662643 100.644348,154.098755 
	C99.930855,154.862030 99.484627,155.497070 98.709686,156.167206 
	C97.577003,157.127319 96.773048,158.052368 95.684006,159.093399 
	C94.585121,160.117249 93.771309,161.025116 92.619263,161.997162 
	C86.854187,166.355377 81.427368,170.649399 75.619843,175.039581 
	C73.249046,175.232391 71.074997,175.884583 69.310371,175.300293 
	C66.392830,174.334244 63.739326,172.570801 60.974560,171.143356 
	C60.974560,171.143356 60.741642,170.887344 60.435852,170.558975 
	C59.434525,169.799881 58.738991,169.369156 58.043457,168.938446 
	C58.043453,168.938446 57.998329,168.996643 57.888668,168.671997 
	C53.541359,164.207199 49.303715,160.067032 45.066071,155.926849 
	C45.066074,155.926849 45.009949,156.005096 44.995888,155.637512 
	C43.659267,153.508224 42.336712,151.746521 41.014153,149.984833 
	C41.014156,149.984833 40.999763,149.999527 40.970226,149.714386 
	C40.679966,149.168015 40.419243,148.906815 40.158520,148.645599 
	C40.158520,148.645599 40.098927,148.286469 39.958042,147.793610 
	C36.850323,138.540222 33.883484,129.779694 30.916649,121.019157 
	C30.939875,120.561867 30.963102,120.104584 31.006578,118.868973 
	C30.965626,115.401863 30.904421,112.713074 30.843216,110.024284 
	C30.915867,108.946152 30.988516,107.868011 31.223545,106.078247 
	C34.316467,88.316162 40.371365,72.412796 49.552189,57.795448 
	C54.833336,49.387016 60.751282,41.378548 66.382584,33.190041 
z"/>
<path fill="#2CAADF" opacity="1.000000" stroke="none" 
	d="
M85.158585,14.081026 
	C85.976852,13.436811 86.795120,12.792596 88.047745,11.920569 
	C88.775482,11.556401 88.954643,11.329686 89.019600,11.012612 
	C89.019600,11.012612 89.000977,10.998610 89.290939,10.968040 
	C89.861626,10.685934 90.142349,10.434397 90.423080,10.182859 
	C90.423080,10.182858 90.753845,10.183354 91.204277,10.087013 
	C92.429390,9.647313 93.204079,9.303954 93.978760,8.960595 
	C94.434715,8.984782 94.890663,9.008969 96.060379,9.060499 
	C99.188469,9.658563 101.602814,10.229284 104.017151,10.800005 
	C105.340866,11.863172 106.664574,12.926339 108.419083,14.414107 
	C110.924278,16.837730 112.998672,18.836752 115.073074,20.835773 
	C115.073074,20.835773 115.055519,20.937904 115.197632,21.236828 
	C116.543610,22.713993 117.747475,23.892237 118.951347,25.070478 
	C119.376083,25.669668 119.800827,26.268858 120.593430,27.272911 
	C121.296364,27.884350 121.631424,28.090927 121.966484,28.297501 
	C122.499184,29.099846 123.031883,29.902191 123.864525,31.094715 
	C124.347672,31.793100 124.616730,31.972795 124.971626,32.023983 
	C124.971626,32.023983 125.000572,32.003632 125.074600,32.337967 
	C126.743629,34.484058 128.338638,36.295815 129.933640,38.107574 
	C130.213287,38.618843 130.492935,39.130112 131.035767,40.027939 
	C131.456009,40.709190 131.701477,40.861515 132.035339,40.871464 
	C132.035339,40.871464 132.023315,40.955616 132.142273,41.262020 
	C133.190277,42.678108 134.119339,43.787792 135.048401,44.897476 
	C135.048401,44.897476 135.019745,44.967808 135.090057,45.224289 
	C135.414810,45.686413 135.669281,45.892052 135.923737,46.097687 
	C135.923737,46.097687 135.940216,45.992107 135.971649,46.360344 
	C136.955948,47.893616 137.908829,49.058655 138.861710,50.223694 
	C139.098602,50.717098 139.335510,51.210510 139.847534,52.185677 
	C141.704895,54.857063 143.287125,57.046696 144.869370,59.236328 
	C144.869370,59.236328 144.929230,59.668465 145.065186,60.087875 
	C145.328415,60.841480 145.568024,61.040413 145.919983,61.104080 
	C145.919983,61.104080 145.944168,60.994186 145.946671,61.395954 
	C147.604767,64.580482 149.260345,67.363251 150.915924,70.146019 
	C150.915924,70.146019 150.974472,70.616158 151.098297,71.069489 
	C151.448502,71.753357 151.674896,71.983902 151.901276,72.214447 
	C155.231384,82.455917 159.429016,92.507355 161.722229,102.975967 
	C167.630005,129.945114 152.122971,161.283035 127.522682,174.085358 
	C111.203506,182.578049 94.348480,184.197403 76.898735,178.265121 
	C83.616524,173.257812 90.243767,168.624786 97.001228,163.921173 
	C97.131447,163.850601 97.216385,163.566803 97.520630,163.440323 
	C98.592659,162.562195 99.360435,161.810547 100.433159,160.928925 
	C110.672821,151.506973 117.968735,140.544846 121.074020,127.195221 
	C127.193207,100.888741 119.125572,77.389259 106.242584,54.597763 
	C105.816566,53.802238 105.446693,53.315338 105.021179,52.511204 
	C104.039108,50.776997 103.112663,49.360020 102.145462,47.645428 
	C101.736946,46.898972 101.369202,46.450130 101.000732,46.000645 
	C101.000000,46.000000 100.999405,45.998119 100.948364,45.739380 
	C100.627991,45.273350 100.358658,45.066055 100.082619,44.901581 
	C100.075905,44.944405 100.160904,44.927361 100.125282,44.632225 
	C99.733208,43.881676 99.376762,43.426262 99.008636,42.984070 
	C98.996964,42.997295 99.030815,42.989109 99.010422,42.706249 
	C98.636215,42.003357 98.282410,41.583324 97.946426,41.109509 
	C97.964264,41.055721 97.852417,41.037441 97.810120,40.796852 
	C97.604034,40.249989 97.354240,40.052475 97.007324,39.980591 
	C96.996223,39.997467 97.034424,39.984829 96.973854,39.712173 
	C96.650162,39.183372 96.387032,38.927227 96.077164,38.410210 
	C95.683136,37.766422 95.335861,37.383503 94.936661,36.743275 
	C94.614609,36.282021 94.344498,36.078079 94.065765,35.916122 
	C94.057144,35.958111 94.140099,35.936493 94.096123,35.652901 
	C93.681381,34.965073 93.310608,34.560841 92.869293,33.904419 
	C92.540497,33.431107 92.282257,33.209988 91.945892,32.731953 
	C91.603989,32.243317 91.340202,32.011589 91.031982,31.580997 
	C90.854225,31.125502 90.648567,30.957317 90.292145,30.587925 
	C89.797287,29.898262 89.380859,29.498251 88.890503,28.856817 
	C88.568817,28.397360 88.321083,28.179327 88.000473,27.697718 
	C87.650772,27.204691 87.373940,26.975241 86.981895,26.451878 
	C85.620094,24.752289 84.373520,23.346609 83.050049,21.680454 
	C82.679108,21.227596 82.385063,21.035215 82.107460,20.887169 
	C82.123901,20.931501 82.174721,20.851755 82.117371,20.577639 
	C81.700142,19.881397 81.340256,19.459272 80.980370,19.037148 
	C80.980370,19.037148 81.077545,18.583115 81.292839,18.239624 
	C81.658852,17.607643 81.809570,17.319151 81.960289,17.030659 
	C81.960289,17.030659 82.024933,17.025036 82.268387,16.935436 
	C82.826874,16.665258 82.995575,16.393723 83.017937,16.031231 
	C83.017937,16.031231 83.003593,16.002846 83.267410,15.949259 
	C83.705177,15.611609 83.879128,15.327547 84.053070,15.043483 
	C84.053070,15.043481 84.001427,14.999547 84.275558,14.955032 
	C84.752647,14.634021 84.955620,14.357524 85.158585,14.081026 
z"/>
<path fill="#F0FBF7" opacity="1.000000" stroke="none" 
	d="
M92.024010,32.988865 
	C92.282257,33.209988 92.540497,33.431107 92.905960,34.193745 
	C93.388817,35.135674 93.764458,35.536083 94.140099,35.936493 
	C94.140099,35.936493 94.057144,35.958111 94.131882,36.164642 
	C94.467278,36.580978 94.727928,36.790779 94.988586,37.000584 
	C95.335861,37.383503 95.683136,37.766422 96.118591,38.695053 
	C96.482651,39.488785 96.758537,39.736805 97.034424,39.984825 
	C97.034424,39.984829 96.996223,39.997467 97.076797,40.207081 
	C97.317055,40.704220 97.548737,40.911137 97.852417,41.037441 
	C97.852417,41.037441 97.964264,41.055721 97.982910,41.391747 
	C98.344643,42.148216 98.687729,42.568661 99.030815,42.989109 
	C99.030815,42.989109 98.996964,42.997295 99.016006,43.296398 
	C99.410339,44.039455 99.785622,44.483410 100.160904,44.927361 
	C100.160904,44.927361 100.075905,44.944405 100.143692,45.153976 
	C100.474121,45.575077 100.736763,45.786598 100.999405,45.998119 
	C100.999405,45.998119 101.000000,46.000000 101.017746,46.312592 
	C101.419075,47.064472 101.802650,47.503757 102.186218,47.943047 
	C103.112663,49.360020 104.039108,50.776997 105.015755,52.850811 
	C105.476875,53.973900 105.887802,54.440144 106.298729,54.906387 
	C119.125572,77.389259 127.193207,100.888741 121.074020,127.195221 
	C117.968735,140.544846 110.672821,151.506973 100.034225,160.918152 
	C98.625694,161.880508 97.921036,162.723648 97.216385,163.566803 
	C97.216385,163.566803 97.131447,163.850601 96.659325,163.916565 
	C95.110634,163.299347 94.034065,162.616165 92.957504,161.932968 
	C93.771309,161.025116 94.585121,160.117249 96.019958,159.071045 
	C97.440125,157.999176 98.239265,157.065659 99.038399,156.132126 
	C99.484627,155.497070 99.930855,154.862030 100.891113,153.995483 
	C101.577263,153.461395 101.749382,153.158829 101.921509,152.856247 
	C101.921509,152.856247 101.942215,152.942703 102.176521,152.807281 
	C102.560478,152.299942 102.710129,151.928009 102.859772,151.556076 
	C108.699249,141.870667 113.769630,131.944992 115.224129,120.445404 
	C116.815506,107.863586 115.228920,95.674095 111.868301,83.594505 
	C111.469429,82.160782 111.128975,80.710815 110.768318,78.580582 
	C110.529922,77.593445 110.284660,77.294106 110.039391,76.994759 
	C109.923836,76.676102 109.808273,76.357437 109.715195,75.468048 
	C109.465446,74.601448 109.193207,74.305573 108.920975,74.009705 
	C108.531738,73.052895 108.142517,72.096077 107.801117,70.491455 
	C107.362656,69.209213 106.876366,68.574768 106.390083,67.940331 
	C105.855156,66.696144 105.320221,65.451950 104.757416,63.546082 
	C104.423439,62.614830 104.117355,62.345257 103.811264,62.075684 
	C103.461510,61.412922 103.111755,60.750160 102.750000,59.480881 
	C102.441010,58.602455 102.144035,58.330547 101.847061,58.058640 
	C101.478149,57.421448 101.109245,56.784256 100.736687,55.524178 
	C100.489021,54.267963 100.245003,53.634640 99.867996,52.771351 
	C99.417320,52.407177 99.099625,52.272968 98.781937,52.138760 
	C98.781937,52.138760 98.860466,52.076839 98.823685,51.868919 
	C98.529922,51.442894 98.272949,51.224785 98.015976,51.006672 
	C98.015976,51.006672 97.812065,50.784996 97.790314,50.325211 
	C97.489227,49.584133 97.209892,49.302837 96.930557,49.021538 
	C96.264137,48.023777 95.597725,47.026016 94.880997,45.465023 
	C94.473526,44.578957 94.116356,44.256119 93.759193,43.933281 
	C93.515762,43.581188 93.272331,43.229099 92.965347,42.199406 
	C92.429741,41.075165 91.957672,40.628521 91.485596,40.181877 
	C90.664131,39.072544 89.842674,37.963207 88.908813,36.286453 
	C88.521820,35.482056 88.247223,35.245087 87.972626,35.008114 
	C87.362259,34.231171 86.751892,33.454224 86.059692,32.014805 
	C85.236069,30.639864 84.494278,29.927397 83.752495,29.214931 
	C83.752495,29.214930 83.792709,29.117744 83.768982,28.900612 
	C83.470886,28.473368 83.196510,28.263254 82.922134,28.053143 
	C82.922134,28.053143 83.001633,28.005747 82.953339,27.693628 
	C82.431053,26.972509 81.957062,26.563509 81.483078,26.154509 
	C81.228630,26.096394 81.048058,25.948235 80.842834,25.234659 
	C80.424500,24.532749 80.104683,24.306215 79.784866,24.079681 
	C79.480095,24.004534 79.242516,23.835150 79.026031,23.006586 
	C78.980331,21.970114 78.980721,21.498581 78.981110,21.027050 
	C79.429459,21.017067 79.877808,21.007084 80.958054,20.972130 
	C81.784882,20.915359 81.979797,20.883556 82.174721,20.851755 
	C82.174721,20.851755 82.123901,20.931501 82.188217,21.145573 
	C82.544006,21.553404 82.835472,21.747166 83.126938,21.940929 
	C84.373520,23.346609 85.620094,24.752289 87.040359,26.726631 
	C87.500481,27.517292 87.786911,27.739292 88.073341,27.961292 
	C88.321083,28.179327 88.568817,28.397360 88.930908,29.169884 
	C89.487030,30.108774 89.928810,30.493176 90.370583,30.877579 
	C90.648567,30.957317 90.854225,31.125502 91.090775,31.849796 
	C91.470673,32.541264 91.747337,32.765064 92.024010,32.988865 
z"/>
<path fill="#E6F9EB" opacity="1.000000" stroke="none" 
	d="
M66.011620,33.165428 
	C60.751282,41.378548 54.833336,49.387016 49.552189,57.795448 
	C40.371365,72.412796 34.316467,88.316162 31.174377,105.675079 
	C31.983150,99.645248 32.478218,93.162422 34.171368,87.009262 
	C35.867935,80.843651 38.466087,74.869316 41.188343,69.054245 
	C47.396641,55.792557 55.181614,43.539547 66.011620,33.165428 
z"/>
<path fill="#E5FAF0" opacity="1.000000" stroke="none" 
	d="
M92.619263,161.997162 
	C94.034065,162.616165 95.110634,163.299347 96.529106,163.987152 
	C90.243767,168.624786 83.616524,173.257812 76.682526,178.006531 
	C76.029312,177.917236 75.682877,177.712234 75.424110,177.072769 
	C75.674706,176.073334 75.837631,175.508377 76.000549,174.943405 
	C81.427368,170.649399 86.854187,166.355377 92.619263,161.997162 
z"/>
<path fill="#E6F9EB" opacity="1.000000" stroke="none" 
	d="
M30.653856,121.281174 
	C33.883484,129.779694 36.850323,138.540222 39.835560,147.658981 
	C36.567680,147.090744 35.470299,144.878082 34.866264,141.531265 
	C33.851559,135.909042 31.932117,130.453308 30.494190,124.901428 
	C30.220329,123.844048 30.413418,122.665718 30.653856,121.281174 
z"/>
<path fill="#E6F9EB" opacity="1.000000" stroke="none" 
	d="
M45.039886,156.302216 
	C49.303715,160.067032 53.541359,164.207199 57.917786,168.649811 
	C51.078960,167.655289 47.844776,162.380615 45.039886,156.302216 
z"/>
<path fill="#E6F9EB" opacity="1.000000" stroke="none" 
	d="
M75.619843,175.039581 
	C75.837631,175.508377 75.674706,176.073334 75.267654,176.810791 
	C70.528984,178.488632 64.459854,176.250305 61.017048,171.488327 
	C63.739326,172.570801 66.392830,174.334244 69.310371,175.300293 
	C71.074997,175.884583 73.249046,175.232391 75.619843,175.039581 
z"/>
<path fill="#E6F9EB" opacity="1.000000" stroke="none" 
	d="
M78.565445,21.016174 
	C78.980721,21.498581 78.980331,21.970114 78.954880,22.795145 
	C76.492264,24.667807 74.054703,26.186970 71.305824,27.833250 
	C71.689117,23.902866 72.776817,20.249773 78.565445,21.016174 
z"/>
<path fill="#E6F9EB" opacity="1.000000" stroke="none" 
	d="
M104.015671,10.395811 
	C101.602814,10.229284 99.188469,9.658563 96.397858,8.997430 
	C98.279335,7.772868 100.537094,6.638717 103.459137,5.170867 
	C103.642845,6.766363 103.828522,8.378990 104.015671,10.395811 
z"/>
<path fill="#E6F9EB" opacity="1.000000" stroke="none" 
	d="
M150.947815,69.745071 
	C149.260345,67.363251 147.604767,64.580482 145.917725,61.444237 
	C150.302734,62.164124 150.510147,65.835022 150.947815,69.745071 
z"/>
<path fill="#E6F9EB" opacity="1.000000" stroke="none" 
	d="
M115.052048,20.480627 
	C112.998672,18.836752 110.924278,16.837730 108.712593,14.528105 
	C110.727211,16.186829 112.879112,18.156155 115.052048,20.480627 
z"/>
<path fill="#E6F9EB" opacity="1.000000" stroke="none" 
	d="
M144.910217,58.842041 
	C143.287125,57.046696 141.704895,54.857063 140.087555,52.327881 
	C143.993225,52.391232 144.016876,55.764759 144.910217,58.842041 
z"/>
<path fill="#E6F9EB" opacity="1.000000" stroke="none" 
	d="
M129.954102,37.723251 
	C128.338638,36.295815 126.743629,34.484058 125.062820,32.352394 
	C128.799759,31.769978 129.537628,34.412746 129.954102,37.723251 
z"/>
<path fill="#E6F9EB" opacity="1.000000" stroke="none" 
	d="
M40.998531,150.381256 
	C42.336712,151.746521 43.659267,153.508224 45.030968,155.603638 
	C41.239685,156.182587 41.185581,153.421158 40.998531,150.381256 
z"/>
<path fill="#E6F9EB" opacity="1.000000" stroke="none" 
	d="
M118.969894,24.673687 
	C117.747475,23.892237 116.543610,22.713993 115.249290,21.232803 
	C117.489716,20.839174 119.388702,21.242659 118.969894,24.673687 
z"/>
<path fill="#E6F9EB" opacity="1.000000" stroke="none" 
	d="
M30.589878,110.317909 
	C30.904421,112.713074 30.965626,115.401863 30.941990,118.530838 
	C30.683617,116.184532 30.510080,113.398033 30.589878,110.317909 
z"/>
<path fill="#E6F9EB" opacity="1.000000" stroke="none" 
	d="
M138.905792,49.840874 
	C137.908829,49.058655 136.955948,47.893616 135.949234,46.409096 
	C136.913559,47.212425 137.931732,48.335239 138.905792,49.840874 
z"/>
<path fill="#E6F9EB" opacity="1.000000" stroke="none" 
	d="
M69.709435,29.050611 
	C69.226044,30.213713 68.389778,31.393648 67.257523,32.675522 
	C67.759872,31.540792 68.558220,30.304119 69.709435,29.050611 
z"/>
<path fill="#E6F9EB" opacity="1.000000" stroke="none" 
	d="
M135.041779,44.520653 
	C134.119339,43.787792 133.190277,42.678108 132.184753,41.260735 
	C133.083908,42.016640 134.059525,43.080235 135.041779,44.520653 
z"/>
<path fill="#E6F9EB" opacity="1.000000" stroke="none" 
	d="
M93.780190,8.711481 
	C93.204079,9.303954 92.429390,9.647313 91.326492,9.975589 
	C91.859398,9.461126 92.720505,8.961747 93.780190,8.711481 
z"/>
<path fill="#E6F9EB" opacity="1.000000" stroke="none" 
	d="
M58.077576,169.296570 
	C58.738991,169.369156 59.434525,169.799881 60.267509,170.518860 
	C59.640537,170.422974 58.876114,170.038834 58.077576,169.296570 
z"/>
<path fill="#E6F9EB" opacity="1.000000" stroke="none" 
	d="
M82.117371,20.577639 
	C81.979797,20.883556 81.784882,20.915359 81.294357,20.966896 
	C80.982948,20.553352 80.967133,20.120070 80.965843,19.361967 
	C81.340256,19.459272 81.700142,19.881397 82.117371,20.577639 
z"/>
<path fill="#E6F9EB" opacity="1.000000" stroke="none" 
	d="
M40.181396,148.933624 
	C40.419243,148.906815 40.679966,149.168015 40.978722,149.709488 
	C40.745926,149.733704 40.475101,149.477676 40.181396,148.933624 
z"/>
<path fill="#E6F9EB" opacity="1.000000" stroke="none" 
	d="
M88.816872,11.060793 
	C88.954643,11.329686 88.775482,11.556401 88.259949,11.687534 
	C88.155525,11.416443 88.347641,11.225331 88.816872,11.060793 
z"/>
<path fill="#E6F9EB" opacity="1.000000" stroke="none" 
	d="
M90.126816,10.199456 
	C90.142349,10.434397 89.861626,10.685934 89.295433,10.978162 
	C89.283501,10.751252 89.557030,10.483653 90.126816,10.199456 
z"/>
<path fill="#E6F9EB" opacity="1.000000" stroke="none" 
	d="
M81.731110,17.135765 
	C81.809570,17.319151 81.658852,17.607643 81.281830,18.007727 
	C81.204338,17.826504 81.353134,17.533686 81.731110,17.135765 
z"/>
<path fill="#E6F9EB" opacity="1.000000" stroke="none" 
	d="
M83.815674,15.124985 
	C83.879128,15.327547 83.705177,15.611609 83.281204,15.957315 
	C83.213547,15.748133 83.395905,15.477309 83.815674,15.124985 
z"/>
<path fill="#E6F9EB" opacity="1.000000" stroke="none" 
	d="
M121.867752,28.003090 
	C121.631424,28.090927 121.296364,27.884350 120.842957,27.400990 
	C121.072746,27.319031 121.420876,27.513853 121.867752,28.003090 
z"/>
<path fill="#E6F9EB" opacity="1.000000" stroke="none" 
	d="
M124.895599,31.795410 
	C124.616730,31.972795 124.347672,31.793100 124.115845,31.240429 
	C124.392723,31.087795 124.643509,31.278086 124.895599,31.795410 
z"/>
<path fill="#E6F9EB" opacity="1.000000" stroke="none" 
	d="
M84.900673,14.146027 
	C84.955620,14.357524 84.752647,14.634021 84.295990,14.981945 
	C84.242455,14.772591 84.442604,14.491809 84.900673,14.146027 
z"/>
<path fill="#E6F9EB" opacity="1.000000" stroke="none" 
	d="
M131.954025,40.685204 
	C131.701477,40.861515 131.456009,40.709190 131.285767,40.189674 
	C131.524521,40.084560 131.724579,40.262592 131.954025,40.685204 
z"/>
<path fill="#E6F9EB" opacity="1.000000" stroke="none" 
	d="
M135.867966,45.858482 
	C135.669281,45.892052 135.414810,45.686413 135.127853,45.227890 
	C135.415451,45.099464 135.654388,45.314220 135.867966,45.858482 
z"/>
<path fill="#E6F9EB" opacity="1.000000" stroke="none" 
	d="
M82.790604,16.109762 
	C82.995575,16.393723 82.826874,16.665258 82.270950,16.903097 
	C82.096573,16.626175 82.274315,16.368820 82.790604,16.109762 
z"/>
<path fill="#E6F9EB" opacity="1.000000" stroke="none" 
	d="
M145.879745,60.875359 
	C145.568024,61.040413 145.328415,60.841480 145.191772,60.265522 
	C145.488571,60.139420 145.707611,60.347046 145.879745,60.875359 
z"/>
<path fill="#E6F9EB" opacity="1.000000" stroke="none" 
	d="
M151.876114,71.972130 
	C151.674896,71.983902 151.448502,71.753357 151.218384,71.273674 
	C151.525101,71.170853 151.737213,71.405945 151.876114,71.972130 
z"/>
<path fill="#E3E3E3" opacity="1.000000" stroke="none" 
	d="
M9.366701,25.993044 
	C11.986090,18.658190 17.865129,14.096008 24.649426,10.032978 
	C23.347677,12.265385 21.941904,14.775729 19.990644,16.745796 
	C16.757530,20.010078 13.173286,22.926588 9.366701,25.993044 
z"/>
<path fill="#E5FAF0" opacity="1.000000" stroke="none" 
	d="
M98.709686,156.167206 
	C98.239265,157.065659 97.440125,157.999176 96.305038,158.955048 
	C96.773048,158.052368 97.577003,157.127319 98.709686,156.167206 
z"/>
<path fill="#E6F9EB" opacity="1.000000" stroke="none" 
	d="
M83.822472,29.518608 
	C84.494278,29.927397 85.236069,30.639864 85.966797,31.727827 
	C85.267967,31.342979 84.580208,30.582630 83.822472,29.518608 
z"/>
<path fill="#E2F7D4" opacity="1.000000" stroke="none" 
	d="
M106.347366,68.246864 
	C106.876366,68.574768 107.362656,69.209213 107.773476,70.180923 
	C107.233559,69.863258 106.769104,69.208328 106.347366,68.246864 
z"/>
<path fill="#E2F7D4" opacity="1.000000" stroke="none" 
	d="
M100.000977,53.001316 
	C100.245003,53.634640 100.489021,54.267963 100.700089,55.244087 
	C100.161064,54.931339 99.654991,54.275791 99.341049,53.307632 
	C99.533195,52.995026 100.000977,53.001316 100.000977,53.001316 
z"/>
<path fill="#E9FADB" opacity="1.000000" stroke="none" 
	d="
M91.601135,40.479774 
	C91.957672,40.628521 92.429741,41.075165 92.892044,41.883400 
	C92.493744,41.755886 92.105209,41.266781 91.601135,40.479774 
z"/>
<path fill="#E9FADB" opacity="1.000000" stroke="none" 
	d="
M93.738312,44.185417 
	C94.116356,44.256119 94.473526,44.578957 94.836411,45.160469 
	C94.467232,45.091949 94.092339,44.764751 93.738312,44.185417 
z"/>
<path fill="#E6F9EB" opacity="1.000000" stroke="none" 
	d="
M81.582764,26.449568 
	C81.957062,26.563509 82.431053,26.972509 82.917992,27.723927 
	C82.514778,27.625771 82.098610,27.185200 81.582764,26.449568 
z"/>
<path fill="#E2F7D4" opacity="1.000000" stroke="none" 
	d="
M110.044815,77.287491 
	C110.284660,77.294106 110.529922,77.593445 110.759048,78.195969 
	C110.512009,78.192841 110.281128,77.886536 110.044815,77.287491 
z"/>
<path fill="#E5FAF0" opacity="1.000000" stroke="none" 
	d="
M102.603111,151.714142 
	C102.710129,151.928009 102.560478,152.299942 102.132126,152.805099 
	C102.017769,152.582962 102.182106,152.227600 102.603111,151.714142 
z"/>
<path fill="#E5FAF0" opacity="1.000000" stroke="none" 
	d="
M101.669365,152.951538 
	C101.749382,153.158829 101.577263,153.461395 101.158386,153.867264 
	C101.080154,153.662643 101.248688,153.354736 101.669365,152.951538 
z"/>
<path fill="#E9FADB" opacity="1.000000" stroke="none" 
	d="
M98.055878,51.265591 
	C98.272949,51.224785 98.529922,51.442894 98.826508,51.918846 
	C98.609337,51.959293 98.352562,51.741901 98.055878,51.265591 
z"/>
<path fill="#E6F9EB" opacity="1.000000" stroke="none" 
	d="
M79.874832,24.359344 
	C80.104683,24.306215 80.424500,24.532749 80.808792,25.057470 
	C80.570442,25.116774 80.267624,24.877890 79.874832,24.359344 
z"/>
<path fill="#E6F9EB" opacity="1.000000" stroke="none" 
	d="
M82.970551,28.317129 
	C83.196510,28.263254 83.470886,28.473368 83.791443,28.948166 
	C83.564743,29.002272 83.291855,28.791695 82.970551,28.317129 
z"/>
<path fill="#E6F9EB" opacity="1.000000" stroke="none" 
	d="
M88.035072,35.276459 
	C88.247223,35.245087 88.521820,35.482056 88.851440,35.993607 
	C88.636818,36.027061 88.367172,35.785934 88.035072,35.276459 
z"/>
<path fill="#E2F7D4" opacity="1.000000" stroke="none" 
	d="
M108.940506,74.311028 
	C109.193207,74.305573 109.465446,74.601448 109.726410,75.212738 
	C109.463432,75.222893 109.211739,74.917625 108.940506,74.311028 
z"/>
<path fill="#E9FADB" opacity="1.000000" stroke="none" 
	d="
M96.984489,49.313560 
	C97.209892,49.302837 97.489227,49.584133 97.787834,50.174637 
	C97.550880,50.191090 97.294647,49.898335 96.984489,49.313560 
z"/>
<path fill="#E9FADB" opacity="1.000000" stroke="none" 
	d="
M99.867996,52.771351 
	C100.000977,53.001316 99.533195,52.995026 99.299438,52.994720 
	C99.065681,52.994411 98.814644,52.602325 98.798294,52.370544 
	C99.099625,52.272968 99.417320,52.407177 99.867996,52.771351 
z"/>
<path fill="#E2F7D4" opacity="1.000000" stroke="none" 
	d="
M101.906876,58.347763 
	C102.144035,58.330547 102.441010,58.602455 102.739807,59.192772 
	C102.483307,59.219749 102.224998,58.928318 101.906876,58.347763 
z"/>
<path fill="#E2F7D4" opacity="1.000000" stroke="none" 
	d="
M103.871758,62.369568 
	C104.117355,62.345257 104.423439,62.614830 104.733490,63.207569 
	C104.469055,63.241642 104.200653,62.952545 103.871758,62.369568 
z"/>
<path fill="#E5FAF0" opacity="1.000000" stroke="none" 
	d="
M97.520630,163.440323 
	C97.921036,162.723648 98.625694,161.880508 99.729279,161.048126 
	C99.360435,161.810547 98.592659,162.562195 97.520630,163.440323 
z"/>
<path fill="#DBF7FD" opacity="1.000000" stroke="none" 
	d="
M99.010422,42.706249 
	C98.687729,42.568661 98.344643,42.148216 97.965073,41.445534 
	C98.282410,41.583324 98.636215,42.003357 99.010422,42.706249 
z"/>
<path fill="#DBF7FD" opacity="1.000000" stroke="none" 
	d="
M100.125282,44.632225 
	C99.785622,44.483410 99.410339,44.039455 99.027679,43.283173 
	C99.376762,43.426262 99.733208,43.881676 100.125282,44.632225 
z"/>
<path fill="#DBF7FD" opacity="1.000000" stroke="none" 
	d="
M102.145462,47.645432 
	C101.802650,47.503757 101.419075,47.064472 101.018478,46.313240 
	C101.369202,46.450130 101.736946,46.898972 102.145462,47.645432 
z"/>
<path fill="#DBF7FD" opacity="1.000000" stroke="none" 
	d="
M94.096123,35.652901 
	C93.764458,35.536083 93.388817,35.135674 92.976501,34.445934 
	C93.310608,34.560841 93.681381,34.965073 94.096123,35.652901 
z"/>
<path fill="#DBF7FD" opacity="1.000000" stroke="none" 
	d="
M106.242584,54.597763 
	C105.887802,54.440144 105.476875,53.973900 105.071381,53.168045 
	C105.446693,53.315338 105.816566,53.802238 106.242584,54.597763 
z"/>
<path fill="#DBF7FD" opacity="1.000000" stroke="none" 
	d="
M90.292145,30.587925 
	C89.928810,30.493176 89.487030,30.108774 89.004852,29.411306 
	C89.380859,29.498251 89.797287,29.898262 90.292145,30.587925 
z"/>
<path fill="#DBF7FD" opacity="1.000000" stroke="none" 
	d="
M96.973854,39.712173 
	C96.758537,39.736805 96.482651,39.488785 96.165337,38.955925 
	C96.387032,38.927227 96.650162,39.183372 96.973854,39.712173 
z"/>
<path fill="#E6F9EB" opacity="1.000000" stroke="none" 
	d="
M83.050049,21.680454 
	C82.835472,21.747166 82.544006,21.553404 82.171783,21.101238 
	C82.385063,21.035215 82.679108,21.227596 83.050049,21.680454 
z"/>
<path fill="#DBF7FD" opacity="1.000000" stroke="none" 
	d="
M88.000473,27.697716 
	C87.786911,27.739292 87.500481,27.517292 87.155579,27.020542 
	C87.373940,26.975241 87.650772,27.204691 88.000473,27.697716 
z"/>
<path fill="#DBF7FD" opacity="1.000000" stroke="none" 
	d="
M91.945892,32.731953 
	C91.747337,32.765064 91.470673,32.541264 91.135208,32.048664 
	C91.340202,32.011589 91.603989,32.243317 91.945892,32.731953 
z"/>
<path fill="#DBF7FD" opacity="1.000000" stroke="none" 
	d="
M94.936661,36.743275 
	C94.727928,36.790779 94.467278,36.580978 94.140503,36.122658 
	C94.344498,36.078079 94.614609,36.282021 94.936661,36.743275 
z"/>
<path fill="#DBF7FD" opacity="1.000000" stroke="none" 
	d="
M97.810120,40.796852 
	C97.548737,40.911137 97.317055,40.704220 97.087906,40.190208 
	C97.354240,40.052475 97.604034,40.249989 97.810120,40.796852 
z"/>
<path fill="#DBF7FD" opacity="1.000000" stroke="none" 
	d="
M100.948364,45.739380 
	C100.736763,45.786598 100.474121,45.575077 100.150406,45.111156 
	C100.358658,45.066055 100.627991,45.273350 100.948364,45.739380 
z"/>
</svg>